<svg xmlns="http://www.w3.org/2000/svg" width="52" height="52" viewBox="0 0 26 26" style="fill: rgb(71, 186, 186);">
    <path d="M 4.875 0 C 2.182 0 0 2.182 0 4.875 L 0 13.34375 L 5.0625 14.8125 C 5.9925 13.6645 7.407 12.9375 9 12.9375 C 9.051 12.9375 9.10625 12.9365 9.15625 12.9375 L 11.9375 9.0625 C 11.9375 9.0375 11.9375 9.025 11.9375 9 C 11.9375 5.656 14.654 2.9375 18 2.9375 C 21.346 2.9375 24.0625 5.656 24.0625 9 C 24.0625 12.346 21.346 15.0625 18 15.0625 C 17.968 15.0625 17.93825 15.0635 17.90625 15.0625 L 14.0625 17.84375 C 14.0645 17.89575 14.0625 17.948 14.0625 18 C 14.0625 20.801 11.802 23.0625 9 23.0625 C 6.405 23.0625 4.301 21.10775 4 18.59375 L 0 17.4375 L 0 21.125 C 0 23.818 2.182 26 4.875 26 L 21.125 26 C 23.818 26 26 23.818 26 21.125 L 26 4.875 C 26 2.182 23.818 0 21.125 0 L 4.875 0 z M 18 4.78125 C 15.674 4.78125 13.78125 6.673 13.78125 9 C 13.78125 11.327 15.674 13.21875 18 13.21875 C 20.326 13.21875 22.21875 11.327 22.21875 9 C 22.21875 6.673 20.326 4.78125 18 4.78125 z M 18 6.0625 C 19.617 6.0625 20.9375 7.383 20.9375 9 C 20.9375 10.618 19.617 11.9375 18 11.9375 C 16.385 11.9375 15.0625 10.618 15.0625 9 C 15.0625 7.383 16.385 6.0625 18 6.0625 z M 9 14.5625 C 8.176 14.5625 7.43775 14.86075 6.84375 15.34375 L 9.375 16.0625 C 9.396 16.0675 9.4165 16.08875 9.4375 16.09375 L 9.5 16.09375 C 10.35 16.31175 10.96875 17.085 10.96875 18 C 10.96875 19.084 10.087 19.96875 9 19.96875 C 8.792 19.96875 8.59525 19.936 8.40625 19.875 L 5.75 19.125 C 6.215 20.482 7.488 21.4375 9 21.4375 C 10.907 21.4375 12.4375 19.907 12.4375 18 C 12.4375 16.093 10.907 14.5625 9 14.5625 z"/>
</svg>