<svg xmlns="http://www.w3.org/2000/svg" width="50" height="50" viewBox="0 0 50 50" style="fill: rgb(162, 187, 55);">
    <path style="text-indent:0;text-align:start;line-height:normal;text-transform:none;block-progression:tb;-inkscape-font-specification:Bitstream Vera Sans" d="M 11 2 C 6 2 2 6 2 11 L 2 25.3125 L 2.4375 25.5 L 9.8125 28.9375 C 11.2785 27.1485 13.506 26 16 26 C 16.784 26 17.535 26.1015 18.25 26.3125 L 22.40625 20.78125 C 22.14925 19.89325 22 18.971 22 18 C 22 12.477 26.478 8 32 8 C 37.522 8 42 12.477 42 18 C 42 23.523 37.522 28 32 28 C 30.959 28 29.943 27.82625 29 27.53125 L 23.65625 31.71875 C 23.87325 32.44575 24 33.202 24 34 C 24 38.418 20.418 42 16 42 C 11.582 42 8 38.418 8 34 C 8 33.503 8.06925 33.0345 8.15625 32.5625 L 2 29.6875 L 2 39 C 2 44 6 48 11 48 L 39 48 C 44 48 48 44 48 39 L 48 11 C 48 6 44 2 39 2 L 11 2 z M 32 12 C 28.698136 12 26 14.698136 26 18 C 26 21.301864 28.698136 24 32 24 C 35.301864 24 38 21.301864 38 18 C 38 14.698136 35.301864 12 32 12 z M 32 14 C 34.220984 14 36 15.779016 36 18 C 36 20.220984 34.220984 22 32 22 C 29.779016 22 28 20.220984 28 18 C 28 15.779016 29.779016 14 32 14 z M 16 30 C 15.146 30 14.36575 30.288 13.71875 30.75 L 16.6875 32.125 C 17.4545 32.405 18 33.138 18 34 C 18 34.704 17.64475 35.3305 17.09375 35.6875 C 17.05275 35.7145 16.9805 35.727 16.9375 35.75 C 16.8435 35.802 16.75825 35.839 16.65625 35.875 C 16.59625 35.896 16.53075 35.9215 16.46875 35.9375 C 16.31475 35.9755 16.167 36 16 36 C 15.865 36 15.57725 36.004 15.28125 35.875 C 15.19425 35.841 15.11225 35.795 15.03125 35.75 L 12.03125 34.34375 C 12.21325 36.38375 13.915 38 16 38 C 18.206 38 20 36.206 20 34 C 20 31.794 18.206 30 16 30 z" color="#000" overflow="visible" enable-background="accumulate" font-family="Bitstream Vera Sans"/>
</svg>